<svg xmlns="http://www.w3.org/2000/svg" xmlns:xlink="http://www.w3.org/1999/xlink" width="15" height="15" viewBox="0 0 15 15">
  <defs>
    <clipPath id="clip-path">
      <rect id="Rectangle_26322" data-name="Rectangle 26322" width="15" height="15" transform="translate(-7285 2065)" fill="#fff"/>
    </clipPath>
  </defs>
  <g id="Info-icon" transform="translate(7285 -2065)" clip-path="url(#clip-path)">
    <g id="info" transform="translate(-7284.691 2065.305)">
      <path id="Path_69733" data-name="Path 69733" d="M14.692,7.349a7.346,7.346,0,1,0-7.346,7.346A7.346,7.346,0,0,0,14.692,7.349Z" transform="translate(0 0)" fill="#dd4247"/>
      <g id="Group_18980" data-name="Group 18980" transform="translate(5.167 2.048)">
        <path id="Path_69734" data-name="Path 69734" d="M178.679,163.42a.148.148,0,0,0-.186-.05,17.28,17.28,0,0,1-1.716.741.142.142,0,0,1-.019-.022.194.194,0,0,1-.033-.119,21.9,21.9,0,0,1,.924-3.723,12.952,12.952,0,0,0,.577-2.206.562.562,0,0,0-.2-.449.8.8,0,0,0-.525-.157,2.749,2.749,0,0,0-1.307.428,7.029,7.029,0,0,0-1.64,1.406.148.148,0,0,0,.166.237c.208-.085,1.256-.514,1.408-.61a.642.642,0,0,1,.322-.118h.008a.158.158,0,0,1,0,.028,1.119,1.119,0,0,1-.055.317,26.247,26.247,0,0,0-1.326,5.419.9.9,0,0,0,.22.637.78.78,0,0,0,.6.241,2.081,2.081,0,0,0,.979-.336,11.416,11.416,0,0,0,1.787-1.472A.148.148,0,0,0,178.679,163.42Z" transform="translate(-174.511 -154.819)" fill="#fff"/>
        <path id="Path_69735" data-name="Path 69735" d="M263,69.3a.746.746,0,0,0-.555-.225.944.944,0,0,0-.716.325,1.105,1.105,0,0,0-.294.773.818.818,0,0,0,.217.586.727.727,0,0,0,.547.231.946.946,0,0,0,.712-.343,1.13,1.13,0,0,0,.307-.782A.779.779,0,0,0,263,69.3Z" transform="translate(-258.865 -69.075)" fill="#fff"/>
      </g>
    </g>
  </g>
</svg>
