<svg xmlns="http://www.w3.org/2000/svg" width="14.001" height="13.42" viewBox="0 0 14.001 13.42">
  <g id="quality" transform="translate(-14.4 -16.363)">
    <path id="Path_68904" data-name="Path 68904" d="M49.695,54.817l2.028-2.028a.742.742,0,1,0-1.056-1.042l-1.493,1.507-.732-.732a.728.728,0,0,0-1.014-.028.745.745,0,0,0-.028,1.071l1.254,1.254A.748.748,0,0,0,49.695,54.817Zm-1.958-1.958a.247.247,0,0,1,.352,0l.9.9a.247.247,0,0,0,.352,0l1.676-1.676a.249.249,0,0,1,.352.352l-2.028,2.028a.247.247,0,0,1-.352,0l-1.254-1.254A.247.247,0,0,1,47.737,52.859Z" transform="translate(-28.167 -30.208)" fill="#fff"/>
    <path id="Path_68905" data-name="Path 68905" d="M40.009,35.3a4.7,4.7,0,1,0-4.7,4.7A4.731,4.731,0,0,0,40.009,35.3Zm-8.916,0A4.212,4.212,0,1,1,35.3,39.516,4.214,4.214,0,0,1,31.093,35.3Z" transform="translate(-13.918 -12.231)" fill="#fff"/>
    <path id="Path_68906" data-name="Path 68906" d="M14.4,23.074c0,.8.972,1.352,1.141,1.9.183.578-.268,1.578.2,2.211s1.564.507,2.042.873.69,1.437,1.451,1.676c.732.239,1.549-.507,2.169-.507s1.437.747,2.169.507c.761-.254.972-1.324,1.451-1.676s1.578-.225,2.042-.873,0-1.634.2-2.211c.169-.549,1.141-1.1,1.141-1.9s-.972-1.352-1.141-1.9c-.183-.578.268-1.578-.2-2.211s-1.564-.507-2.042-.873-.69-1.437-1.451-1.676c-.732-.239-1.549.507-2.169.507s-1.437-.747-2.169-.507c-.761.254-.972,1.324-1.451,1.676s-1.578.225-2.042.873,0,1.634-.2,2.211C15.358,21.722,14.4,22.271,14.4,23.074Zm1.564-1.747c.225-.69-.183-1.648.127-2.071s1.352-.338,1.944-.761.8-1.451,1.324-1.606c.493-.155,1.268.521,2.014.521s1.521-.69,2.014-.521.747,1.2,1.324,1.606,1.634.324,1.944.761-.1,1.38.127,2.071c.211.662,1.127,1.2,1.127,1.747s-.916,1.085-1.127,1.747c-.225.69.183,1.648-.127,2.071s-1.352.338-1.944.761-.8,1.451-1.324,1.606c-.493.155-1.268-.521-2.014-.521s-1.521.69-2.014.521-.747-1.2-1.324-1.606-1.634-.324-1.944-.761.1-1.38-.127-2.071c-.211-.662-1.127-1.2-1.127-1.747S15.738,21.989,15.964,21.327Z" fill="#fff"/>
  </g>
</svg>
