<svg xmlns="http://www.w3.org/2000/svg" xmlns:xlink="http://www.w3.org/1999/xlink" width="15" height="15" viewBox="0 0 15 15">
  <defs>
    <clipPath id="clip-path">
      <rect id="Rectangle_26323" data-name="Rectangle 26323" width="15" height="15" transform="translate(-7449 2095)" fill="#fff"/>
    </clipPath>
  </defs>
  <g id="Rewards" transform="translate(7449 -2095)" clip-path="url(#clip-path)">
    <g id="trophy" transform="translate(-7448.647 2095.353)">
      <g id="Group_18981" data-name="Group 18981" transform="translate(4.32 11.423)">
        <path id="Path_69736" data-name="Path 69736" d="M156.973,400.158,154,399.3l-2.969.858a.349.349,0,0,0-.034.163v1.774h6.008v-1.774A.349.349,0,0,0,156.973,400.158Z" transform="translate(-151 -399.3)" fill="#fcc64f"/>
      </g>
      <path id="Path_69737" data-name="Path 69737" d="M259,402.095v-1.774a.35.35,0,0,0-.034-.163L256,399.3v2.795Z" transform="translate(-248.676 -387.877)" fill="#ffb03b"/>
      <path id="Path_69738" data-name="Path 69738" d="M14.218.858H12.025c0-.145.018-.281.018-.429A.425.425,0,0,0,11.615,0H3.032A.425.425,0,0,0,2.6.429c0,.148.015.284.018.429H.429A.429.429,0,0,0,0,1.287V2.374A4.51,4.51,0,0,0,4.285,6.842,4.254,4.254,0,0,0,6.028,8.308a6.412,6.412,0,0,1-1.579,3.836.3.3,0,0,0-.094.137h5.939a.3.3,0,0,0-.094-.137A6.33,6.33,0,0,1,8.619,8.308a4.265,4.265,0,0,0,1.747-1.466,4.51,4.51,0,0,0,4.281-4.467V1.287a.429.429,0,0,0-.429-.429ZM.858,2.374V1.716h1.8a11.4,11.4,0,0,0,1.065,4.2A3.661,3.661,0,0,1,.858,2.374Zm12.931,0a3.661,3.661,0,0,1-2.863,3.538,11.442,11.442,0,0,0,1.063-4.2h1.8Z" fill="#fed843"/>
      <path id="Path_69739" data-name="Path 69739" d="M262.894.858H260.7c0-.145.018-.281.018-.429A.425.425,0,0,0,260.291,0H256V12.281h2.969a.3.3,0,0,0-.094-.137A6.33,6.33,0,0,1,257.3,8.308a4.265,4.265,0,0,0,1.747-1.466,4.51,4.51,0,0,0,4.281-4.467V1.287a.429.429,0,0,0-.429-.429Zm-.429,1.516A3.661,3.661,0,0,1,259.6,5.913a11.442,11.442,0,0,0,1.063-4.2h1.8Z" transform="translate(-248.676)" fill="#fabe2c"/>
      <g id="Trophy_31_" transform="translate(5.466 1.95)">
        <g id="Group_18982" data-name="Group 18982">
          <path id="Path_69740" data-name="Path 69740" d="M193.621,71.675l-.685-.356-.685.356a.433.433,0,0,1-.45-.034.428.428,0,0,1-.171-.417l.126-.762-.549-.542a.429.429,0,0,1,.237-.73l.763-.115.345-.69a.447.447,0,0,1,.768,0l.345.69.763.115a.429.429,0,0,1,.237.73l-.549.542.126.762a.429.429,0,0,1-.621.451Z" transform="translate(-191.079 -68.167)" fill="#a56800"/>
        </g>
      </g>
      <path id="Path_69741" data-name="Path 69741" d="M256.685,71.674a.429.429,0,0,0,.621-.451l-.126-.762.549-.542a.429.429,0,0,0-.237-.73l-.763-.115-.345-.69a.42.42,0,0,0-.384-.218v3.152Z" transform="translate(-248.676 -66.216)" fill="#573700"/>
      <g id="Group_18983" data-name="Group 18983" transform="translate(3.461 13.789)">
        <path id="Path_69742" data-name="Path 69742" d="M128.295,482.858h-6.866a.429.429,0,1,1,0-.858h6.866a.429.429,0,1,1,0,.858Z" transform="translate(-121 -482)" fill="#92093d"/>
      </g>
      <path id="Path_69743" data-name="Path 69743" d="M259.433,482H256v.858h3.433a.429.429,0,1,0,0-.858Z" transform="translate(-248.676 -468.211)" fill="#92093d"/>
    </g>
  </g>
</svg>
