<svg xmlns="http://www.w3.org/2000/svg" width="24.377" height="30.019" viewBox="0 0 24.377 30.019">
  <g id="winner-3-icon" transform="translate(-16.235 -5.183)">
    <g id="Group_17596" data-name="Group 17596" transform="translate(16.235 20.954)">
      <path id="Path_67704" data-name="Path 67704" d="M21.972,81.233,20.99,76.2l-4.755,1.917,6.044-11.132L28.016,70.1Z" transform="translate(-16.235 -66.986)" fill="#d82b55"/>
      <path id="Path_67705" data-name="Path 67705" d="M71.641,81.233l.982-5.032,4.755,1.917L71.333,66.986,65.6,70.1Z" transform="translate(-53 -66.986)" fill="#d82b55"/>
    </g>
    <g id="Group_17597" data-name="Group 17597" transform="translate(16.835 5.183)">
      <path id="Path_67706" data-name="Path 67706" d="M41.553,15.673l-.657-.787a1.48,1.48,0,0,1-.3-1.32l.255-.992a1.48,1.48,0,0,0-.821-1.719l-.933-.424a1.482,1.482,0,0,1-.838-1.06l-.2-1.005a1.48,1.48,0,0,0-1.486-1.192L35.554,7.2a1.48,1.48,0,0,1-1.217-.59l-.616-.819a1.48,1.48,0,0,0-1.857-.43l-.913.465a1.482,1.482,0,0,1-1.352,0l-.91-.471a1.48,1.48,0,0,0-1.857.418l-.621.815a1.48,1.48,0,0,1-1.221.583l-1.024-.029a1.48,1.48,0,0,0-1.493,1.183l-.206,1a1.48,1.48,0,0,1-.846,1.055l-.936.418a1.48,1.48,0,0,0-.832,1.714l.25.994A1.48,1.48,0,0,1,19.6,14.82l-.661.783a1.48,1.48,0,0,0-.006,1.905l.657.786a1.482,1.482,0,0,1,.3,1.32l-.256.992a1.48,1.48,0,0,0,.821,1.719l.933.424a1.482,1.482,0,0,1,.84,1.06l.2,1.005a1.48,1.48,0,0,0,1.486,1.192l1.025-.023a1.48,1.48,0,0,1,1.217.591l.616.819a1.48,1.48,0,0,0,1.855.43l.913-.465a1.48,1.48,0,0,1,1.352,0l.91.471a1.48,1.48,0,0,0,1.858-.418l.621-.815a1.48,1.48,0,0,1,1.221-.583l1.024.029a1.48,1.48,0,0,0,1.493-1.183l.206-1a1.48,1.48,0,0,1,.847-1.055L40,22.386a1.48,1.48,0,0,0,.832-1.714l-.25-.994a1.482,1.482,0,0,1,.306-1.318l.661-.782a1.48,1.48,0,0,0,.006-1.905Z" transform="translate(-18.585 -5.183)" fill="#824a02"/>
      <g id="rank3" transform="translate(-252.6 -59.981)" style="mix-blend-mode: normal;isolation: isolate">
        <circle id="Ellipse_3" data-name="Ellipse 3" cx="8.5" cy="8.5" r="8.5" transform="translate(256 63)" fill="#532c23" opacity="0.91"/>
        <g id="Group_4921" data-name="Group 4921" transform="translate(260.517 65.952)">
          <g id="Group_4636" data-name="Group 4636">
            <path id="Path_7431" data-name="Path 7431" d="M31.651,33.159h.017c.041,0,.082,0,.123-.01l.027,0,.133-.015.027,0c.041,0,.082-.01.121-.017l.019,0,.133-.022.029,0c.044-.007.087-.017.131-.027h0c.044-.01.087-.019.133-.031l.027-.007.131-.034.01,0,.121-.036.024-.007c.041-.015.085-.027.126-.044L33,32.888l.116-.044.015-.007.121-.051a.048.048,0,0,0,.019-.01c.041-.017.08-.036.119-.056h0c.041-.019.08-.039.119-.061.007,0,.012-.007.019-.01.077-.041.155-.087.23-.133l.017-.01.111-.073a.034.034,0,0,1,.01-.007l.1-.073.01-.007c.036-.027.07-.053.1-.08,0,0,.007-.007.012-.01l.1-.085h0c.034-.029.065-.061.1-.09l.012-.012c.065-.061.126-.126.186-.194,0,0,.007-.007.01-.012.029-.034.058-.068.087-.1l0,0c.029-.034.056-.07.082-.107a.034.034,0,0,0,.007-.01c.027-.036.053-.073.077-.111l.007-.01c.024-.039.051-.075.075-.116h0c.024-.039.046-.08.07-.121l.007-.015c.044-.08.085-.165.123-.252L35.087,31a3.873,3.873,0,0,0,.307-1.557,3.29,3.29,0,0,0-2.4-3.133l1.186-1.538.516-.671c.012-.017.024-.034.034-.051a.051.051,0,0,1,.007-.012c.01-.017.019-.034.029-.048l.007-.012a.289.289,0,0,0,.019-.039.123.123,0,0,0,.007-.017.375.375,0,0,0,.019-.046l.007-.019c0-.012.007-.024.012-.036s0-.012,0-.017h0c0-.017.007-.034.012-.051a.067.067,0,0,0,0-.022.213.213,0,0,0,0-.039c0-.007,0-.012,0-.019a.508.508,0,0,0,0-.061h0v-1.4h0a.264.264,0,0,0,0-.044c0-.007,0-.012,0-.019s0-.015,0-.022,0-.017,0-.024,0-.01,0-.015l-.007-.027s0-.007,0-.01-.007-.019-.01-.027a.008.008,0,0,0,0,0L34.816,22a0,0,0,0,0,0,0,.251.251,0,0,0-.017-.027h0l-.019-.027h0a.391.391,0,0,0-.307-.119H28.116a.467.467,0,0,0-.218.048h0a.28.28,0,0,0-.107.092l0,0L27.767,22s0,0,0,0a.344.344,0,0,0-.031.092s0,.007,0,.012l-.007.039s0,.01,0,.015a.412.412,0,0,0,0,.056h0v1.588a.43.43,0,0,0,0,.056.031.031,0,0,0,0,.015c0,.012,0,.027,0,.039a.106.106,0,0,0,0,.012.516.516,0,0,0,.031.092s0,0,0,0,.012.019.017.029,0,0,0,.007l0,0a.3.3,0,0,0,.107.092h0a.566.566,0,0,0,.068.029s0,0,.01,0a.071.071,0,0,0,.022,0l.022,0,.019,0a.1.1,0,0,0,.027,0h.012l.041,0H31.8l-.128.167h0l-1.317,1.719-.16.208h0a.4.4,0,0,0-.034.053l-.012.019a.243.243,0,0,0-.019.034c0,.007-.007.015-.012.022s-.01.019-.017.031l-.015.031-.015.036c0,.007,0,.015-.007.024s0,.007,0,.01l-.007.019a.008.008,0,0,1,0,0l-.007.024s0,0,0,.01v0l-.007.031s0,.012,0,.017,0,.034-.007.053v.007a.549.549,0,0,0,0,.063V27.81a.359.359,0,0,0,0,.051.031.031,0,0,0,0,.015c0,.012,0,.024,0,.034s0,.01,0,.015l.007.034s0,.007,0,.012l.015.039v0a.389.389,0,0,0,.046.075v0l.029.029,0,0a.415.415,0,0,0,.034.027h0a.445.445,0,0,0,.247.065h.923c.09,0,.177,0,.257.012.024,0,.051,0,.075.01h.007l.07.01a.015.015,0,0,1,.01,0l.065.012.01,0,.063.015.007,0c.022,0,.041.012.063.017,0,0,0,0,0,0a1.417,1.417,0,0,1,.4.186l.007,0c.015.01.027.019.039.029l.01.007.036.029s.007.007.012.01a.384.384,0,0,1,.031.029l.012.012.029.029.012.012a.166.166,0,0,1,.027.031s.007.007.01.012.017.022.027.031l.007.012a.3.3,0,0,1,.024.034s0,0,0,0a1.214,1.214,0,0,1,.07.121c0,.007.007.012.01.019a.15.15,0,0,1,.012.029.251.251,0,0,1,.01.024c0,.01.007.019.012.029s.007.017.01.027.007.019.01.027a.085.085,0,0,0,.01.027c0,.01,0,.019.007.027l.007.029.007.027c0,.01,0,.019.007.031s0,.017,0,.027,0,.022,0,.034,0,.017,0,.027,0,.024,0,.036,0,.017,0,.024,0,.027,0,.041V29.4c0,.019,0,.041,0,.061a1.163,1.163,0,0,1-.317.833l-.044.044a1.163,1.163,0,0,1-.334.213c-.044.019-.09.036-.136.053a2.168,2.168,0,0,1-.678.1c-.036,0-.07,0-.107,0H31.22c-.034,0-.068,0-.1-.007h0l-.1-.01-.022,0-.092-.015h0c-.029,0-.058-.012-.087-.019l-.019,0a1.629,1.629,0,0,1-.165-.048l-.015,0-.075-.029h0a1.208,1.208,0,0,1-.148-.075c-.031-.019-.061-.039-.09-.058a1.209,1.209,0,0,1-.119-.1,1.082,1.082,0,0,1-.1-.109,1.122,1.122,0,0,1-.2-.39l-.015-.048s0-.007,0-.012-.007-.022-.012-.034,0-.007,0-.012a.169.169,0,0,1-.012-.031s0-.007,0-.01-.012-.022-.017-.031,0,0,0,0a.339.339,0,0,0-.107-.119h0a.408.408,0,0,0-.235-.065H27.711a.361.361,0,0,0-.363.2c0,.01-.007.019-.012.029s0,0,0,.007-.007.022-.01.034a.009.009,0,0,1,0,.007.144.144,0,0,0,0,.034v.007a.222.222,0,0,0,0,.041v.053a3.813,3.813,0,0,0,.2.913.674.674,0,0,0,.024.063c.034.09.07.177.111.264.012.027.027.053.039.08a3.379,3.379,0,0,0,.407.62l.056.065.087.094c.029.031.061.063.092.092s.063.061.1.09c.063.056.126.109.191.16a3.6,3.6,0,0,0,.55.354l.077.041a4.731,4.731,0,0,0,2.109.472c.046,0,.094,0,.14,0h.031A.528.528,0,0,1,31.651,33.159Z" transform="translate(-27.306 -21.285)"/>
            <g id="Group_4635" data-name="Group 4635">
              <path id="Path_7432" data-name="Path 7432" d="M35.364,26.831c0,2.448-1.908,3.719-4.053,3.719a3.733,3.733,0,0,1-4.036-3.305.358.358,0,0,1,.4-.414h1.765c.237,0,.349.128.414.366.143.508.6.874,1.462.874,1.048,0,1.511-.557,1.511-1.24s-.46-1.24-1.511-1.24H30.39a.36.36,0,0,1-.4-.4V24.177a.813.813,0,0,1,.174-.494l1.605-2.1h-3.69a.36.36,0,0,1-.4-.4V19.6a.36.36,0,0,1,.4-.4h6.358a.36.36,0,0,1,.4.4V21a.813.813,0,0,1-.174.494l-1.7,2.208A3.287,3.287,0,0,1,35.364,26.831Z" transform="translate(-27.273 -19.201)" fill="#eab8a9"/>
              <path id="Path_7433" data-name="Path 7433" d="M32.568,47.449l-1,.613a1.213,1.213,0,0,1,1.254,1.228c0,.683-.46,1.24-1.511,1.24a2.024,2.024,0,0,1-.8-.143l.068.269L28.628,50l-1.32-.511a.455.455,0,0,0-.034.216,3.735,3.735,0,0,0,4.036,3.305,3.875,3.875,0,0,0,3.8-2.3h0A3.557,3.557,0,0,0,32.568,47.449Z" transform="translate(-27.274 -41.657)" fill="#e8aa99"/>
              <path id="Path_7434" data-name="Path 7434" d="M32.918,25.065v-.826l2.69-3.729H30.282l-.816-1.073a.364.364,0,0,0-.179.349v1.588a.36.36,0,0,0,.4.4h3.688l-1.605,2.1a.813.813,0,0,0-.174.494v1.017a.36.36,0,0,0,.4.4h.923c1.048,0,1.511.557,1.511,1.24s-.46,1.24-1.511,1.24c-.857,0-1.32-.366-1.462-.874a.5.5,0,0,0-.177-.3l-1.044.644s-.266.266.559,1.119a2.925,2.925,0,0,0,2.131.746s2.69.24,2.69-2.317S32.918,25.065,32.918,25.065Z" transform="translate(-28.874 -19.389)" fill="#d68f7b"/>
              <path id="Path_7435" data-name="Path 7435" d="M29.286,19.789v1.588a.369.369,0,0,0,.177.349l.816-1.215-.816-1.073A.37.37,0,0,0,29.286,19.789Z" transform="translate(-28.874 -19.389)" fill="#e8aa99"/>
              <path id="Path_7436" data-name="Path 7436" d="M50.5,25.538l-.806-.869L47,28.4l1.644-.351,1.7-2.208A1,1,0,0,0,50.5,25.538Z" transform="translate(-42.955 -23.548)" fill="#e8aa99"/>
              <path id="Path_7437" data-name="Path 7437" d="M60.926,21.652a.708.708,0,0,0,.024-.194v-1.4a.409.409,0,0,0-.09-.278l-.741,1Z" transform="translate(-53.385 -19.661)" fill="#e8aa99"/>
              <path id="Path_7438" data-name="Path 7438" d="M30.378,25.933h3.688L36.3,24.669H30.977l-.816,1.215A.453.453,0,0,0,30.378,25.933Z" transform="translate(-29.569 -23.548)" fill="#b27462"/>
              <path id="Path_7439" data-name="Path 7439" d="M42.433,25.884l-.216.218-1.477,1.93a.884.884,0,0,0-.165.366h1.317l2.69-3.729Z" transform="translate(-37.848 -23.548)" fill="#d68f7b"/>
              <path id="Path_7440" data-name="Path 7440" d="M40.529,42.408v1.017a.374.374,0,0,0,.15.332l1.177-.649v-.826l-1.274-.148A.717.717,0,0,0,40.529,42.408Z" transform="translate(-37.811 -37.432)" fill="#b27462"/>
            </g>
          </g>
          <path id="Path_7441" data-name="Path 7441" d="M36.854,24.5l.162.523a.518.518,0,0,0,.341.341l.523.162a.047.047,0,0,1,0,.09l-.523.162a.518.518,0,0,0-.341.341l-.162.523a.047.047,0,0,1-.09,0L36.6,26.12a.518.518,0,0,0-.341-.341l-.523-.162a.047.047,0,0,1,0-.09l.523-.162a.518.518,0,0,0,.341-.341l.162-.523A.046.046,0,0,1,36.854,24.5Z" transform="translate(-33.976 -23.386)" fill="#fff"/>
          <path id="Path_7442" data-name="Path 7442" d="M52.524,63.642l.162.523a.518.518,0,0,0,.341.341l.523.162a.047.047,0,0,1,0,.09l-.523.162a.518.518,0,0,0-.341.341l-.162.523a.047.047,0,0,1-.09,0l-.162-.523a.518.518,0,0,0-.341-.341l-.523-.162a.047.047,0,0,1,0-.09l.523-.162a.518.518,0,0,0,.341-.341l.162-.523A.047.047,0,0,1,52.524,63.642Z" transform="translate(-46.434 -54.504)" fill="#fff"/>
        </g>
      </g>
    </g>
  </g>
</svg>
