<svg xmlns="http://www.w3.org/2000/svg" width="24.377" height="30.019" viewBox="0 0 24.377 30.019">
  <g id="winner-2-icon" transform="translate(-16.235 -5.183)">
    <g id="Group_17596" data-name="Group 17596" transform="translate(16.235 20.954)">
      <path id="Path_67704" data-name="Path 67704" d="M21.972,81.233,20.99,76.2l-4.755,1.917,6.044-11.132L28.016,70.1Z" transform="translate(-16.235 -66.986)" fill="#d82b55"/>
      <path id="Path_67705" data-name="Path 67705" d="M71.641,81.233l.982-5.032,4.755,1.917L71.333,66.986,65.6,70.1Z" transform="translate(-53 -66.986)" fill="#d82b55"/>
    </g>
    <g id="Group_17597" data-name="Group 17597" transform="translate(16.835 5.183)">
      <path id="Path_67706" data-name="Path 67706" d="M41.553,15.673l-.657-.787a1.48,1.48,0,0,1-.3-1.32l.255-.992a1.48,1.48,0,0,0-.821-1.719l-.933-.424a1.482,1.482,0,0,1-.838-1.06l-.2-1.005a1.48,1.48,0,0,0-1.486-1.192L35.554,7.2a1.48,1.48,0,0,1-1.217-.59l-.616-.819a1.48,1.48,0,0,0-1.857-.43l-.913.465a1.482,1.482,0,0,1-1.352,0l-.91-.471a1.48,1.48,0,0,0-1.857.418l-.621.815a1.48,1.48,0,0,1-1.221.583l-1.024-.029a1.48,1.48,0,0,0-1.493,1.183l-.206,1a1.48,1.48,0,0,1-.846,1.055l-.936.418a1.48,1.48,0,0,0-.832,1.714l.25.994A1.48,1.48,0,0,1,19.6,14.82l-.661.783a1.48,1.48,0,0,0-.006,1.905l.657.786a1.482,1.482,0,0,1,.3,1.32l-.256.992a1.48,1.48,0,0,0,.821,1.719l.933.424a1.482,1.482,0,0,1,.84,1.06l.2,1.005a1.48,1.48,0,0,0,1.486,1.192l1.025-.023a1.48,1.48,0,0,1,1.217.591l.616.819a1.48,1.48,0,0,0,1.855.43l.913-.465a1.48,1.48,0,0,1,1.352,0l.91.471a1.48,1.48,0,0,0,1.858-.418l.621-.815a1.48,1.48,0,0,1,1.221-.583l1.024.029a1.48,1.48,0,0,0,1.493-1.183l.206-1a1.48,1.48,0,0,1,.847-1.055L40,22.386a1.48,1.48,0,0,0,.832-1.714l-.25-.994a1.482,1.482,0,0,1,.306-1.318l.661-.782a1.48,1.48,0,0,0,.006-1.905Z" transform="translate(-18.585 -5.183)" fill="#e4e7e7"/>
    </g>
    <g id="rank2" transform="translate(20.235 -56)" style="mix-blend-mode: normal;isolation: isolate">
      <circle id="Ellipse_2" data-name="Ellipse 2" cx="8.5" cy="8.5" r="8.5" transform="translate(0 64)" fill="#564f4d" opacity="0.91"/>
      <g id="Group_4919" data-name="Group 4919" transform="translate(4.421 68.414)">
        <g id="Group_4634" data-name="Group 4634" transform="translate(0.467)">
          <path id="Path_7419" data-name="Path 7419" d="M32.394,27.239h-1.7l-.029.686h-2.59a1.851,1.851,0,0,1,.275-.387c.037-.041.076-.079.116-.118s.055-.052.085-.076l.044-.037c.015-.013.029-.024.046-.037a10.989,10.989,0,0,1,1.442-.822c.166-.085.323-.17.468-.253.17-.1.328-.192.47-.286.041-.028.081-.053.12-.081.057-.041.114-.079.166-.12a3.722,3.722,0,0,0,.409-.35c.013-.013.026-.026.037-.039a1.914,1.914,0,0,0,.131-.151h0l.05-.066.015-.02c.013-.017.024-.035.037-.052l.011-.017c.015-.022.028-.042.041-.065a.274.274,0,0,0,.015-.024c.009-.015.017-.029.026-.044l.017-.028c.009-.017.018-.033.026-.05l.022-.044.017-.035.017-.039.011-.028c.013-.029.024-.059.035-.089,0,0,0-.006,0-.007s.011-.033.017-.048l.006-.017c.017-.053.033-.107.046-.162,0,0,0-.006,0-.007,0-.018.009-.037.013-.057h0a2.082,2.082,0,0,0,.041-.4,2.117,2.117,0,0,0-.911-1.773,3.891,3.891,0,0,0-2.376-.673,3.939,3.939,0,0,0-2.221.584,2.387,2.387,0,0,0-.94,2l2.116.065a1.1,1.1,0,0,1,.433-1.042c.015-.009.031-.017.046-.024L28.5,23l.039-.017.013-.006.042-.015.009,0c.018-.006.037-.011.055-.015h0l.055-.011a.051.051,0,0,1,.017,0l.042-.006.02,0,.042,0a.063.063,0,0,0,.018,0c.02,0,.042,0,.063,0a.876.876,0,0,1,.583.177c.009.009.02.017.029.026l.028.028a.5.5,0,0,1,.05.059.675.675,0,0,1,.063.1.757.757,0,0,1,.059.144c.011.039.02.077.028.118a1.042,1.042,0,0,1,.013.171.953.953,0,0,1-.1.417,1.5,1.5,0,0,1-.214.321q-.05.055-.116.122l-.028.028c-.048.046-.1.1-.162.147s-.153.133-.245.206c-.227.186-.509.4-.85.654a9.309,9.309,0,0,0-.857.7l-.061.057c-.061.057-.12.116-.175.173-.112.116-.216.23-.31.347l-.046.057c-.046.057-.089.116-.129.173-.013.02-.028.039-.041.059a3.071,3.071,0,0,0-.177.291,3.949,3.949,0,0,0-.3.715,4.367,4.367,0,0,0-.186,1.058c-.006.092-.007.188-.007.282h0v.006c0,.007,0,.022,0,.046s0,.031,0,.05c0,.039,0,.09.007.151h6.541l.035-1.285.041-1.274Z" transform="translate(-25.767 -21.02)"/>
          <g id="Group_4633" data-name="Group 4633" transform="translate(0.002)">
            <path id="Path_7420" data-name="Path 7420" d="M30.711,24.662h1.7l-.07,2.57H25.8q-.011-.249-.011-.254a4.018,4.018,0,0,1,1.2-2.983,8.36,8.36,0,0,1,1.093-.927,10.814,10.814,0,0,0,1.4-1.158,1.139,1.139,0,0,0,.313-.739.841.841,0,0,0-.212-.592.828.828,0,0,0-.638-.23q-.91,0-.911,1.152l-2.116-.065a2.378,2.378,0,0,1,.94-2,3.925,3.925,0,0,1,2.221-.584,3.907,3.907,0,0,1,2.376.673,2.114,2.114,0,0,1,.911,1.773,2.079,2.079,0,0,1-.461,1.3,5.571,5.571,0,0,1-1.8,1.276,10.773,10.773,0,0,0-1.442.822,2.062,2.062,0,0,0-.568.656h2.588Z" transform="translate(-25.789 -18.847)" fill="#d0cbca"/>
            <path id="Path_7421" data-name="Path 7421" d="M26.882,30.749l1.2-1.038a2.082,2.082,0,0,1,.568-.656,10.989,10.989,0,0,1,1.442-.822,5.628,5.628,0,0,0,1.8-1.276,2.143,2.143,0,0,0,.42-.9c.007-.065.013-.131.017-.2.044-.793-1.394-1.864-3.27-1.845-1.2.011-.944.474-.6.8a.945.945,0,0,1,.476-.111.767.767,0,0,1,.85.822,1.143,1.143,0,0,1-.313.739,10.531,10.531,0,0,1-1.4,1.158,8.5,8.5,0,0,0-1.093.927,4.018,4.018,0,0,0-1.2,2.983s0,.088.011.254h0Z" transform="translate(-25.779 -23.211)" fill="#bcbcbc"/>
            <path id="Path_7422" data-name="Path 7422" d="M31.545,30.751H26.881a2.1,2.1,0,0,1,.3-1.054c.345-.669.385-.892,2.21-2.231s2.109-3.123-.061-3.407-2.291,1.1-2.291,1.1l.981.712q0-1.153.911-1.152a.767.767,0,0,1,.85.822,1.143,1.143,0,0,1-.313.739,10.531,10.531,0,0,1-1.4,1.158,8.5,8.5,0,0,0-1.093.927,4.018,4.018,0,0,0-1.2,2.983s0,.089.011.254h6.541l.07-2.57-.859.649v1.075h0Z" transform="translate(-25.779 -23.213)" fill="#a1a1a1"/>
            <path id="Path_7423" data-name="Path 7423" d="M27.751,31.282l-1.134.647,2.114.065Z" transform="translate(-26.487 -29.341)" fill="#bcbcbc"/>
            <path id="Path_7424" data-name="Path 7424" d="M58.154,56.742l-.844-.649h1.7Z" transform="translate(-52.387 -50.279)" fill="#bcbcbc"/>
            <path id="Path_7425" data-name="Path 7425" d="M62.718,57.817l.787.846.072-2.57-.859.649Z" transform="translate(-56.951 -50.279)" fill="#bcbcbc"/>
            <path id="Path_7426" data-name="Path 7426" d="M31.615,67.134H26.951l-1.089.846H32.4Z" transform="translate(-25.849 -59.596)" fill="#a1a1a1"/>
            <path id="Path_7427" data-name="Path 7427" d="M37.5,61.524l-.874-1.038H34.043l-1.2,1.038Z" transform="translate(-31.738 -53.986)" fill="#bcbcbc"/>
            <path id="Path_7428" data-name="Path 7428" d="M57.994,56.742v1.075l-.874-1.038.03-.686Z" transform="translate(-52.228 -50.279)" fill="#d0cbca"/>
          </g>
        </g>
        <path id="Path_7429" data-name="Path 7429" d="M23.649,61.686l.123.4a.394.394,0,0,0,.26.26l.4.123a.036.036,0,0,1,0,.068l-.4.124a.394.394,0,0,0-.26.26l-.123.4a.036.036,0,0,1-.068,0l-.123-.4a.394.394,0,0,0-.26-.26l-.4-.124a.036.036,0,0,1,0-.068l.4-.123a.394.394,0,0,0,.26-.26l.123-.4A.036.036,0,0,1,23.649,61.686Z" transform="translate(-22.774 -54.977)" fill="#fff"/>
        <path id="Path_7430" data-name="Path 7430" d="M55.722,35.132l.123.4a.394.394,0,0,0,.26.26l.4.124a.036.036,0,0,1,0,.068l-.4.123a.394.394,0,0,0-.26.26l-.123.4a.036.036,0,0,1-.068,0l-.123-.4a.394.394,0,0,0-.26-.26l-.4-.123a.036.036,0,0,1,0-.068l.4-.124a.394.394,0,0,0,.26-.26l.123-.4A.035.035,0,0,1,55.722,35.132Z" transform="translate(-49.84 -32.567)" fill="#fff"/>
      </g>
    </g>
  </g>
</svg>
