<svg xmlns="http://www.w3.org/2000/svg" width="24.377" height="30.019" viewBox="0 0 24.377 30.019">
  <g id="winner-1-icon" transform="translate(-16.235 -5.183)">
    <g id="Group_17596" data-name="Group 17596" transform="translate(16.235 20.954)">
      <path id="Path_67704" data-name="Path 67704" d="M21.972,81.233,20.99,76.2l-4.755,1.917,6.044-11.132L28.016,70.1Z" transform="translate(-16.235 -66.986)" fill="#d82b55"/>
      <path id="Path_67705" data-name="Path 67705" d="M71.641,81.233l.982-5.032,4.755,1.917L71.333,66.986,65.6,70.1Z" transform="translate(-53 -66.986)" fill="#d82b55"/>
    </g>
    <g id="Group_17597" data-name="Group 17597" transform="translate(16.835 5.183)">
      <path id="Path_67706" data-name="Path 67706" d="M41.553,15.673l-.657-.787a1.48,1.48,0,0,1-.3-1.32l.255-.992a1.48,1.48,0,0,0-.821-1.719l-.933-.424a1.482,1.482,0,0,1-.838-1.06l-.2-1.005a1.48,1.48,0,0,0-1.486-1.192L35.554,7.2a1.48,1.48,0,0,1-1.217-.59l-.616-.819a1.48,1.48,0,0,0-1.857-.43l-.913.465a1.482,1.482,0,0,1-1.352,0l-.91-.471a1.48,1.48,0,0,0-1.857.418l-.621.815a1.48,1.48,0,0,1-1.221.583l-1.024-.029a1.48,1.48,0,0,0-1.493,1.183l-.206,1a1.48,1.48,0,0,1-.846,1.055l-.936.418a1.48,1.48,0,0,0-.832,1.714l.25.994A1.48,1.48,0,0,1,19.6,14.82l-.661.783a1.48,1.48,0,0,0-.006,1.905l.657.786a1.482,1.482,0,0,1,.3,1.32l-.256.992a1.48,1.48,0,0,0,.821,1.719l.933.424a1.482,1.482,0,0,1,.84,1.06l.2,1.005a1.48,1.48,0,0,0,1.486,1.192l1.025-.023a1.48,1.48,0,0,1,1.217.591l.616.819a1.48,1.48,0,0,0,1.855.43l.913-.465a1.48,1.48,0,0,1,1.352,0l.91.471a1.48,1.48,0,0,0,1.858-.418l.621-.815a1.48,1.48,0,0,1,1.221-.583l1.024.029a1.48,1.48,0,0,0,1.493-1.183l.206-1a1.48,1.48,0,0,1,.847-1.055L40,22.386a1.48,1.48,0,0,0,.832-1.714l-.25-.994a1.482,1.482,0,0,1,.306-1.318l.661-.782a1.48,1.48,0,0,0,.006-1.905Z" transform="translate(-18.585 -5.183)" fill="#fcc64f"/>
    </g>
    <g id="rank1" transform="translate(-106.765 -17)" style="mix-blend-mode: normal;isolation: isolate">
      <circle id="Ellipse_1" data-name="Ellipse 1" cx="8.5" cy="8.5" r="8.5" transform="translate(127 25)" fill="#573700" opacity="0.91"/>
      <g id="Group_4920" data-name="Group 4920" transform="translate(132.274 27.723)">
        <g id="Group_4630" data-name="Group 4630">
          <path id="Path_7397" data-name="Path 7397" d="M40.463,32.854l.007-.01s0,0,0,0a.019.019,0,0,0,0-.01s0,0,0-.007,0-.007,0-.01,0,0,0-.007,0,0,0-.01,0-.007,0-.01,0,0,0-.007,0-.007,0-.012V30.6h0a.069.069,0,0,0,0-.022v-.007s0-.01,0-.015a.009.009,0,0,0,0-.007s0-.01,0-.015a.009.009,0,0,0,0,0l-.007-.015a0,0,0,0,0,0,0,.187.187,0,0,0-.11-.095h0l-.027-.007h0a.122.122,0,0,0-.03,0H39.124l-.03,0h0l-.015,0h0a.088.088,0,0,1-.027-.01h0a.179.179,0,0,1-.037-.027h0a.243.243,0,0,1-.05-.124.919.919,0,0,1-.007-.127v-8.5H37.812a.246.246,0,0,0-.042,0l-.01,0a.155.155,0,0,0-.055.025.131.131,0,0,0-.035.03l-.015.017a2.289,2.289,0,0,1-.164.189l-.007.007a1.815,1.815,0,0,1-.189.172l-.047.037a.218.218,0,0,1-.025.02l-.037.03a.351.351,0,0,1-.037.027c-.02.012-.037.027-.057.04l-.022.015-.075.05a.013.013,0,0,1-.01,0c-.08.05-.162.1-.251.147-.007,0-.012.007-.02.01l-.189.1-.007,0-.1.05h0l-.117.052-.017.007c-.035.015-.07.03-.107.042l-.007,0c-.08.03-.162.06-.244.085-.055.017-.11.035-.164.05h0l-.062.017h0c-.095.025-.192.047-.289.065l-.02,0-.072.012-.042.007-.062.01-.057.007-.055.007-.072.007c-.015,0-.03,0-.042,0-.04,0-.077.007-.117.01h0l-.127.007c-.085,0-.172.007-.259.007h0a.132.132,0,0,0-.032,0h0L34.408,23h0a.174.174,0,0,0-.052.027h0a0,0,0,0,0,0,0h0a.159.159,0,0,0-.022.02h0a.226.226,0,0,0-.035.05h0a.18.18,0,0,0-.017.082v1.775a.192.192,0,0,0,.09.164l0,0a.117.117,0,0,0,.025.012s0,0,0,0a.113.113,0,0,0,.027.007h0a.126.126,0,0,0,.03,0l.05,0c.052,0,.1,0,.164,0,.095,0,.184,0,.271,0,.217-.007.411-.022.58-.045l.1-.015a.122.122,0,0,1,.03,0h.007a.121.121,0,0,1,.03,0h0l.03.007a0,0,0,0,1,0,0,.092.092,0,0,1,.027.012h0a.2.2,0,0,1,.1.172V30.2a.192.192,0,0,1-.057.137.184.184,0,0,1-.062.042h0a.036.036,0,0,1-.017,0h0l-.015,0h0l-.015,0h-1.24l-.015,0h0a.035.035,0,0,0-.015,0h0l-.015,0h0l-.015.007h0a.208.208,0,0,0-.045.032h0a.2.2,0,0,0-.057.137V32.72h0a.085.085,0,0,0,0,.025v.007a.036.036,0,0,0,0,.017s0,0,0,0l.007.022s0,0,0,0a.061.061,0,0,0,.01.017s0,0,0,0a.1.1,0,0,0,.012.017h0a.058.058,0,0,0,.017.017l0,0a.066.066,0,0,0,.015.012l0,0a.088.088,0,0,0,.02.012h0c.007,0,.012.007.02.01s0,0,0,0l.015,0a.009.009,0,0,1,.007,0l.015,0h.007l.022,0h5.848a.237.237,0,0,0,.072-.017h0l.015-.007h0a.051.051,0,0,0,.015-.01h0a.054.054,0,0,0,.012-.01l0,0s.007-.007.012-.01l0,0,.01-.01C40.461,32.857,40.463,32.854,40.463,32.854Z" transform="translate(-34.271 -21.058)" fill="#382b73"/>
          <g id="Group_4629" data-name="Group 4629" transform="translate(0)">
            <path id="Path_7398" data-name="Path 7398" d="M40.309,30.177H34.468a.2.2,0,0,1-.2-.2V27.844a.2.2,0,0,1,.2-.2h1.19a.2.2,0,0,0,.2-.2v-4.91a.2.2,0,0,0-.229-.192,5.99,5.99,0,0,1-.954.065c-.077,0-.149,0-.214,0a.194.194,0,0,1-.184-.194V20.44a.2.2,0,0,1,.2-.2h0a4.62,4.62,0,0,0,1.94-.406,3.2,3.2,0,0,0,1.245-.9.193.193,0,0,1,.157-.077h1.15v8.5c0,.284.095.294.2.294h1.14a.2.2,0,0,1,.2.2v2.136A.2.2,0,0,1,40.309,30.177Z" transform="translate(-34.271 -18.852)" fill="#fede3a"/>
            <path id="Path_7399" data-name="Path 7399" d="M37.4,36.9v-8.2l-2.3.657-.747.894a.2.2,0,0,0,.12.047c.065,0,.137,0,.214,0a6.013,6.013,0,0,0,.954-.065.2.2,0,0,1,.229.192v4.912a.2.2,0,0,1-.2.2h-1.19a.2.2,0,0,0-.2.2v2.136a.193.193,0,0,0,.1.172l1.222-1.15H37.4Z" transform="translate(-34.281 -26.749)" fill="#ffc733"/>
            <path id="Path_7400" data-name="Path 7400" d="M34.513,20.221h0a.132.132,0,0,0-.032,0h0l-.027.007s0,0,0,0a.265.265,0,0,0-.052.027,0,0,0,0,0,0,0,.159.159,0,0,0-.022.02h0a.225.225,0,0,0-.035.05h0a.141.141,0,0,0-.01.03l.807,1.081,2.3-.657L39,18.831H37.852a.2.2,0,0,0-.157.077,3.206,3.206,0,0,1-1.245.9h0a4.558,4.558,0,0,1-.493.189c-.055.017-.11.035-.164.05-.02,0-.042.012-.065.017a4.79,4.79,0,0,1-.832.137l-.127.007c-.082.005-.169.007-.256.007Z" transform="translate(-34.312 -18.831)" fill="#ffe36c"/>
            <path id="Path_7401" data-name="Path 7401" d="M60.334,65.917a.2.2,0,0,0,.187-.194V63.586a.2.2,0,0,0-.077-.157l-1.21,1.315Z" transform="translate(-54.287 -54.591)" fill="#ffc733"/>
            <path id="Path_7402" data-name="Path 7402" d="M51.778,62.544c-.09,0-.169-.007-.194-.169L50,63.9h1.825l1.21-1.315h0a.19.19,0,0,0-.117-.04Z" transform="translate(-46.883 -53.745)" fill="#ffe36c"/>
            <path id="Path_7403" data-name="Path 7403" d="M35.89,63H34.7a.2.2,0,0,0-.139.057l1.27,1.3h1.79L36.029,62.94A.2.2,0,0,1,35.89,63Z" transform="translate(-34.503 -54.198)" fill="#ffe36c"/>
            <path id="Path_7404" data-name="Path 7404" d="M40.732,71.236h.01l-1.1-1.173H36.021L34.8,71.213a.194.194,0,0,0,.092.022Z" transform="translate(-34.694 -59.91)" fill="#e7ad27"/>
            <path id="Path_7405" data-name="Path 7405" d="M34.954,30.312a6.013,6.013,0,0,0,.954-.065.186.186,0,0,1,.127.022l1.636-1.564-2.3.657-.747.894a.2.2,0,0,0,.12.047C34.8,30.309,34.877,30.312,34.954,30.312Z" transform="translate(-34.553 -26.749)" fill="#e7ad27"/>
          </g>
        </g>
        <path id="Path_7406" data-name="Path 7406" d="M53.4,21.334l.167.538a.532.532,0,0,0,.351.351l.538.167a.048.048,0,0,1,0,.092l-.538.167a.532.532,0,0,0-.351.351l-.167.538a.048.048,0,0,1-.092,0L53.14,23a.532.532,0,0,0-.351-.351l-.538-.167a.048.048,0,0,1,0-.092l.538-.167a.532.532,0,0,0,.351-.351l.167-.538A.048.048,0,0,1,53.4,21.334Z" transform="translate(-48.661 -20.243)" fill="#fff"/>
        <path id="Path_7407" data-name="Path 7407" d="M39.517,46.59l.167.538a.532.532,0,0,0,.351.351l.538.167a.048.048,0,0,1,0,.092l-.538.167a.532.532,0,0,0-.351.351l-.167.538a.048.048,0,0,1-.092,0l-.167-.538a.532.532,0,0,0-.351-.351l-.538-.167a.048.048,0,0,1,0-.092l.538-.167a.532.532,0,0,0,.351-.351l.167-.538A.048.048,0,0,1,39.517,46.59Z" transform="translate(-37.53 -40.492)" fill="#fff"/>
      </g>
    </g>
  </g>
</svg>
